<?xml version="1.0" encoding="UTF-8"?><svg id="_1" xmlns="http://www.w3.org/2000/svg" viewBox="0 0 666.14 579.23"><defs><style>.cls-1{letter-spacing:0em;}.cls-2{letter-spacing:0em;}.cls-3{letter-spacing:.13em;}.cls-4{fill:#68ce5d;}.cls-4,.cls-5,.cls-6,.cls-7{stroke:#000;stroke-miterlimit:10;}.cls-5{fill:#ffe900;}.cls-6{fill:#3b8739;}.cls-7{fill:#4eaa49;}.cls-8{letter-spacing:.15em;}.cls-9{letter-spacing:.12em;}.cls-10{letter-spacing:-.01em;}.cls-11{letter-spacing:-.01em;}.cls-12{font-family:AvenirNextCondensed-Regular, 'Avenir Next Condensed';font-size:21px;}.cls-13{letter-spacing:.12em;}.cls-14{font-family:AvenirNext-UltraLight, 'Avenir Next';font-size:45px;font-weight:100;}.cls-15{letter-spacing:-.05em;}</style></defs><text class="cls-14" transform="translate(0 433.9)"><tspan class="cls-1" x="0" y="0">CHUL</tspan><tspan class="cls-10" x="122.13" y="0">A </tspan><tspan class="cls-1" x="162.36" y="0">VI</tspan><tspan class="cls-2" x="200.79" y="0">S</tspan><tspan class="cls-15" x="226.03" y="0">T</tspan><tspan class="cls-11" x="247.95" y="0">A</tspan></text><text class="cls-12" transform="translate(36.42 461.17)"><tspan class="cls-3" x="0" y="0">Chamber o</tspan><tspan class="cls-8" x="105.06" y="0">f</tspan><tspan class="cls-3" x="113.23" y="0"> </tspan><tspan class="cls-13" x="119.8" y="0">C</tspan><tspan class="cls-3" x="132.3" y="0">omme</tspan><tspan class="cls-9" x="191.12" y="0">r</tspan><tspan class="cls-3" x="199.43" y="0">ce</tspan></text><g><path class="cls-5" d="m214.7,553s-28.1,0-64,0-63-1-63-1c-2-40,24-71,62-71,35.9,0,61,19,65,72Z"/><path class="cls-4" d="m265.7,561.5c-7.77,0-9.77-1.45-58.42-1.45-19.13,0-98.99.71-113.51.71-47.22,0-41.07-.26-57.07-.26,0,0,15.22-31.58,57.79-31.58,20.46,0,37.8,3.94,52.21,16.58,16.37-12.27,39.81-17.29,61.32-17.29,48.65,0,57.68,33.29,57.68,33.29Z"/><path class="cls-7" d="m277.2,571.34c-8.72,0-10.96-1.45-65.56-1.45-21.47,0-111.09.71-127.39.71-52.99,0-46.09-.26-64.05-.26,0,0,17.08-31.58,64.86-31.58,22.96,0,42.42,3.94,58.59,16.58,18.37-12.27,44.68-17.29,68.82-17.29,54.6,0,64.73,33.29,64.73,33.29Z"/><path class="cls-6" d="m283.2,574c-9.22,0-11.6-1.09-69.39-1.09-22.72,0-117.58.53-134.82.53-56.09,0-48.78-.19-67.79-.19,0,0,18.08-23.72,68.64-23.72,24.3,0,44.9,2.96,62.01,12.45,19.44-9.21,47.29-12.98,72.83-12.98,57.79,0,68.51,25,68.51,25Z"/></g></svg>